<svg height='300px' width='300px'  fill="#000000" xmlns="http://www.w3.org/2000/svg" xmlns:xlink="http://www.w3.org/1999/xlink" version="1.1" x="0px" y="0px" viewBox="0 0 512 512" style="enable-background:new 0 0 512 512;" xml:space="preserve"><g><g><g><path d="M195.061,373.81H54.44c-2.63,0-5.21-1.069-7.07-2.93s-2.93-4.43-2.93-7.07c0-7.279-0.17-13.16-0.311-18.359     c-0.1-3.761-0.189-7.021-0.2-10.011c0.011-4.659,0.2-8.319,1.08-12.13c0.9-4.069,2.87-7.97,5.53-11     c1.64-1.899,3.58-3.63,6.08-5.439c2.96-2.13,6.25-4.07,10.28-6.33c2.319-1.3,4.819-2.66,7.72-4.24     c3.63-1.98,7.75-4.22,12.43-6.84c3.12-1.74,7.08-1.66,10.12,0.21l27.62,16.97l27.521-16.97c3.039-1.87,7.029-1.95,10.149-0.2     c4.48,2.51,8.46,4.69,11.97,6.61c3.86,2.109,7.2,3.939,10.15,5.64c5.47,3.18,9.97,5.95,13.81,10.11     c2.49,2.7,4.44,6.1,5.511,9.569c1.489,4.851,1.63,9.561,1.649,14.36c0,2.98-0.09,6.21-0.189,9.96     c-0.141,5.12-0.3,10.93-0.3,18.09c0,2.63-1.07,5.21-2.931,7.07C200.271,372.74,197.69,373.81,195.061,373.81z M64.34,353.81     h120.82c0.06-3.319,0.14-6.319,0.21-8.96c0.1-3.54,0.18-6.59,0.18-9.09c0.011-4.41-0.29-6.61-0.55-7.69     c-0.36-1.39-0.55-1.71-1.24-2.59c-0.569-0.68-1.46-1.46-2.649-2.33c-1.75-1.29-4.46-2.96-8.3-5.119     c-2.271-1.28-4.87-2.7-7.891-4.351c-2.12-1.17-4.53-2.49-7.1-3.899l-22.98,14.159c-3,1.96-6.479,2.99-10.06,2.99h-0.03     c-2.84,0-5.68-0.67-8.21-1.939l-0.77-0.421l-24.091-14.8c-2.77,1.521-5.34,2.92-7.619,4.16c-3.57,1.94-6.65,3.62-9.181,5.07     c-4.53,2.56-7.819,4.81-9.03,6.189c-0.72,0.83-0.88,1.141-1.189,2.021c-0.48,1.39-0.75,4.39-0.73,8.229     c0,2.49,0.08,5.551,0.181,9.08C64.19,347.26,64.28,350.359,64.34,353.81z"></path></g><g><path d="M125,289.439L125,289.439h-0.25c-5.34-0.02-10.71-1.38-15.51-3.939c-4.21-2.23-8.13-5.37-11.63-9.34     c-5.761-6.57-10.3-15.11-13.11-24.7c-1.689-5.82-2.55-11.36-2.56-16.45C81.93,229.47,83.1,224.08,85.42,219     c2.21-4.88,5.351-9.22,9.33-12.91c8.061-7.51,18.74-11.65,30.061-11.65l0,0l0,0c11.27,0,21.909,4.14,29.97,11.66     c3.96,3.69,7.1,8.03,9.31,12.9c2.311,5.09,3.48,10.48,3.471,16.01c-0.051,7.69-2.23,16.43-6.32,25.29     c-4.59,9.72-10.42,17.28-17.351,22.47C139.82,285.8,133.24,289.42,125,289.439z M124.811,214.44L124.811,214.44     c-6.24,0-12.08,2.23-16.431,6.29c-4.21,3.94-6.43,8.88-6.439,14.28c-0.04,3.89,1.189,10.67,3.989,17.07     c2.681,6.27,6.66,11.69,10.641,14.49c2.76,1.95,5.319,2.83,8.29,2.87h0.05c1.68-0.01,3.31-0.479,5.13-1.479     c1.97-1.09,4.03-2.82,5.97-5.021c3.86-4.3,7.53-10.95,9.58-17.36c1.25-3.82,1.99-7.77,1.971-10.57     c-0.011-5.4-2.23-10.34-6.431-14.29C136.79,216.67,130.99,214.44,124.811,214.44L124.811,214.44z"></path></g><g><path d="M429.439,280.06H307.56c-5.51,0-10-4.479-10-10c0-5.51,4.49-10,10-10h121.88c5.511,0,10,4.49,10,10     C439.439,275.58,434.95,280.06,429.439,280.06z"></path></g><g><path d="M429.439,326.939H251.311c-5.511,0-10-4.489-10-10c0-5.52,4.489-10,10-10h178.129c5.511,0,10,4.48,10,10     C439.439,322.45,434.95,326.939,429.439,326.939z"></path></g><g><path d="M298.189,373.81H241.94c-5.521,0-10-4.479-10-10c0-5.51,4.479-10,10-10h56.249c5.511,0,10,4.49,10,10     C308.189,369.33,303.7,373.81,298.189,373.81z"></path></g><g><path d="M429.439,373.81h-84.38c-5.51,0-10-4.479-10-10c0-5.51,4.49-10,10-10h84.38c5.511,0,10,4.49,10,10     C439.439,369.33,434.95,373.81,429.439,373.81z"></path></g><g><path d="M485.689,411.31H26.311c-5.511,0-10-4.479-10-10c0-5.51,4.489-10,10-10h459.379c5.511,0,10,4.49,10,10     C495.689,406.83,491.2,411.31,485.689,411.31z"></path></g><g><g><path d="M458.37,467.56H26.311c-2.631,0-5.211-1.069-7.07-2.93c-1.86-1.86-2.93-4.44-2.93-7.07V389.62c0-5.511,4.489-10,10-10      c5.52,0,10,4.489,10,10v57.939h422.06c5.51,0,10,4.49,10,10C468.37,463.08,463.88,467.56,458.37,467.56z M485.689,444.88      c-5.52,0-10-4.49-10-10c0-5.521,4.48-10,10-10c5.511,0,10,4.479,10,10C495.689,440.39,491.2,444.88,485.689,444.88z       M485.689,394.88c-5.52,0-10-4.49-10-10V130.06H290.85v27.95c0,2.64-1.069,5.21-2.93,7.07c-1.86,1.86-4.44,2.93-7.07,2.93      h-47.829c-2.631,0-5.21-1.06-7.07-2.93c-1.86-1.86-2.93-4.44-2.93-7.07v-27.95H36.311v159.56c0,5.52-4.48,10-10,10      c-5.511,0-10-4.48-10-10V120.06c0-2.63,1.069-5.21,2.93-7.07c1.859-1.86,4.439-2.93,7.07-2.93h206.71      c2.63,0,5.21,1.07,7.069,2.93c1.86,1.86,2.931,4.44,2.931,7.07v27.95h27.829v-27.95c0-2.63,1.07-5.21,2.931-7.07      c1.869-1.86,4.439-2.93,7.069-2.93h204.84c2.63,0,5.21,1.07,7.07,2.93s2.93,4.44,2.93,7.07v264.81c0,0,0,0,0,0.01      C495.689,390.39,491.2,394.88,485.689,394.88z M26.311,349.62c-5.511,0-10-4.49-10-10c0-5.511,4.489-10,10-10      c5.52,0,10,4.489,10,10C36.311,345.13,31.83,349.62,26.311,349.62z"></path></g><g><path d="M280.85,168.01h-47.829c-2.631,0-5.21-1.06-7.07-2.93c-1.86-1.86-2.93-4.43-2.93-7.07V78.35      c0.01-9.05,3.54-17.57,9.939-23.97c6.41-6.4,14.92-9.93,23.98-9.94c9.029,0.02,17.529,3.55,23.93,9.93      c6.41,6.4,9.96,14.91,9.979,23.98v79.66c0,2.63-1.06,5.21-2.93,7.07C286.06,166.95,283.479,168.01,280.85,168.01z       M243.021,148.01h27.829V78.35c0-3.67-1.46-7.16-4.109-9.82c-2.66-2.64-6.141-4.09-9.8-4.09c-3.7,0-7.19,1.45-9.83,4.08      c-2.63,2.65-4.08,6.14-4.09,9.83V148.01z"></path></g></g><g><path d="M304.72,168.01H209.15c-5.511,0-10-4.48-10-10c0-5.51,4.489-10,10-10h95.569c5.521,0,10,4.49,10,10     C314.72,163.53,310.24,168.01,304.72,168.01z"></path></g></g></g></svg>